<mxfile host="app.diagrams.net" modified="2024-05-06T08:30:08.599Z" agent="Mozilla/5.0 (Windows NT 10.0; Win64; x64) AppleWebKit/537.36 (KHTML, like Gecko) Chrome/124.0.0.0 Safari/537.36" etag="skCwLZ6Tkns-UIGIpM7l" version="24.3.1" type="device">
  <diagram name="페이지-1" id="P9nLD_qL5HXwSzXMn6La">
    <mxGraphModel dx="1434" dy="780" grid="1" gridSize="10" guides="1" tooltips="1" connect="1" arrows="1" fold="1" page="1" pageScale="1" pageWidth="827" pageHeight="1169" math="0" shadow="0">
      <root>
        <mxCell id="0" />
        <mxCell id="1" parent="0" />
        <mxCell id="RLU1NcDRkOixDta_tGvt-1" value="userService&lt;div&gt;&lt;br&gt;&lt;/div&gt;" style="swimlane;fontStyle=1;align=center;verticalAlign=top;childLayout=stackLayout;horizontal=1;startSize=26;horizontalStack=0;resizeParent=1;resizeParentMax=0;resizeLast=0;collapsible=1;marginBottom=0;whiteSpace=wrap;html=1;" vertex="1" parent="1">
          <mxGeometry x="40" y="267" width="160" height="70" as="geometry" />
        </mxCell>
        <mxCell id="RLU1NcDRkOixDta_tGvt-4" value="upgradeLevels()" style="text;strokeColor=none;fillColor=none;align=left;verticalAlign=top;spacingLeft=4;spacingRight=4;overflow=hidden;rotatable=0;points=[[0,0.5],[1,0.5]];portConstraint=eastwest;whiteSpace=wrap;html=1;" vertex="1" parent="RLU1NcDRkOixDta_tGvt-1">
          <mxGeometry y="26" width="160" height="44" as="geometry" />
        </mxCell>
        <mxCell id="RLU1NcDRkOixDta_tGvt-7" value="UserDao" style="swimlane;fontStyle=1;align=center;verticalAlign=top;childLayout=stackLayout;horizontal=1;startSize=26;horizontalStack=0;resizeParent=1;resizeParentMax=0;resizeLast=0;collapsible=1;marginBottom=0;whiteSpace=wrap;html=1;" vertex="1" parent="1">
          <mxGeometry x="300" y="269" width="160" height="66" as="geometry" />
        </mxCell>
        <mxCell id="RLU1NcDRkOixDta_tGvt-11" value="update()&lt;div&gt;&lt;br&gt;&lt;/div&gt;" style="text;html=1;align=center;verticalAlign=middle;resizable=0;points=[];autosize=1;strokeColor=none;fillColor=none;" vertex="1" parent="RLU1NcDRkOixDta_tGvt-7">
          <mxGeometry y="26" width="160" height="40" as="geometry" />
        </mxCell>
        <mxCell id="RLU1NcDRkOixDta_tGvt-12" value="Connection + Treasaction" style="rounded=1;arcSize=10;whiteSpace=wrap;html=1;align=center;" vertex="1" parent="1">
          <mxGeometry x="530" y="210" width="100" height="40" as="geometry" />
        </mxCell>
        <mxCell id="RLU1NcDRkOixDta_tGvt-13" value="Connection + Treasaction" style="rounded=1;arcSize=10;whiteSpace=wrap;html=1;align=center;" vertex="1" parent="1">
          <mxGeometry x="530" y="280" width="100" height="40" as="geometry" />
        </mxCell>
        <mxCell id="RLU1NcDRkOixDta_tGvt-14" value="Connection + Treasaction" style="rounded=1;arcSize=10;whiteSpace=wrap;html=1;align=center;" vertex="1" parent="1">
          <mxGeometry x="530" y="370" width="100" height="40" as="geometry" />
        </mxCell>
        <mxCell id="RLU1NcDRkOixDta_tGvt-15" value="DBMS" style="strokeWidth=2;html=1;shape=mxgraph.flowchart.database;whiteSpace=wrap;" vertex="1" parent="1">
          <mxGeometry x="710" y="280" width="60" height="60" as="geometry" />
        </mxCell>
        <mxCell id="RLU1NcDRkOixDta_tGvt-16" value="" style="html=1;verticalAlign=bottom;endArrow=block;curved=0;rounded=0;entryX=0;entryY=0.25;entryDx=0;entryDy=0;exitX=1;exitY=0.25;exitDx=0;exitDy=0;" edge="1" parent="1" source="RLU1NcDRkOixDta_tGvt-1" target="RLU1NcDRkOixDta_tGvt-7">
          <mxGeometry width="80" relative="1" as="geometry">
            <mxPoint x="210" y="286" as="sourcePoint" />
            <mxPoint x="290" y="286" as="targetPoint" />
          </mxGeometry>
        </mxCell>
        <mxCell id="RLU1NcDRkOixDta_tGvt-17" value="" style="html=1;verticalAlign=bottom;endArrow=block;curved=0;rounded=0;entryX=0;entryY=0.25;entryDx=0;entryDy=0;entryPerimeter=0;exitX=0.994;exitY=0.295;exitDx=0;exitDy=0;exitPerimeter=0;" edge="1" parent="1" source="RLU1NcDRkOixDta_tGvt-4" target="RLU1NcDRkOixDta_tGvt-11">
          <mxGeometry width="80" relative="1" as="geometry">
            <mxPoint x="210" y="305.5" as="sourcePoint" />
            <mxPoint x="290" y="305.5" as="targetPoint" />
          </mxGeometry>
        </mxCell>
        <mxCell id="RLU1NcDRkOixDta_tGvt-18" value="" style="html=1;verticalAlign=bottom;endArrow=block;curved=0;rounded=0;entryX=0;entryY=0.775;entryDx=0;entryDy=0;entryPerimeter=0;exitX=0.988;exitY=0.75;exitDx=0;exitDy=0;exitPerimeter=0;" edge="1" parent="1" source="RLU1NcDRkOixDta_tGvt-4" target="RLU1NcDRkOixDta_tGvt-11">
          <mxGeometry width="80" relative="1" as="geometry">
            <mxPoint x="210" y="326" as="sourcePoint" />
            <mxPoint x="290" y="326" as="targetPoint" />
          </mxGeometry>
        </mxCell>
        <mxCell id="RLU1NcDRkOixDta_tGvt-19" value="" style="html=1;verticalAlign=bottom;endArrow=block;curved=0;rounded=0;exitX=1;exitY=0.25;exitDx=0;exitDy=0;entryX=0;entryY=0.5;entryDx=0;entryDy=0;" edge="1" parent="1" source="RLU1NcDRkOixDta_tGvt-7" target="RLU1NcDRkOixDta_tGvt-12">
          <mxGeometry width="80" relative="1" as="geometry">
            <mxPoint x="470" y="280" as="sourcePoint" />
            <mxPoint x="550" y="280" as="targetPoint" />
          </mxGeometry>
        </mxCell>
        <mxCell id="RLU1NcDRkOixDta_tGvt-20" value="" style="html=1;verticalAlign=bottom;endArrow=block;curved=0;rounded=0;exitX=1.019;exitY=0.225;exitDx=0;exitDy=0;exitPerimeter=0;entryX=0;entryY=0.25;entryDx=0;entryDy=0;" edge="1" parent="1" source="RLU1NcDRkOixDta_tGvt-11" target="RLU1NcDRkOixDta_tGvt-13">
          <mxGeometry width="80" relative="1" as="geometry">
            <mxPoint x="480" y="305" as="sourcePoint" />
            <mxPoint x="530" y="310" as="targetPoint" />
          </mxGeometry>
        </mxCell>
        <mxCell id="RLU1NcDRkOixDta_tGvt-21" value="" style="html=1;verticalAlign=bottom;endArrow=block;curved=0;rounded=0;exitX=0.994;exitY=0.6;exitDx=0;exitDy=0;exitPerimeter=0;entryX=0;entryY=0.5;entryDx=0;entryDy=0;" edge="1" parent="1" source="RLU1NcDRkOixDta_tGvt-11" target="RLU1NcDRkOixDta_tGvt-14">
          <mxGeometry width="80" relative="1" as="geometry">
            <mxPoint x="470" y="316" as="sourcePoint" />
            <mxPoint x="560" y="310" as="targetPoint" />
          </mxGeometry>
        </mxCell>
        <mxCell id="RLU1NcDRkOixDta_tGvt-22" value="" style="html=1;verticalAlign=bottom;endArrow=block;curved=0;rounded=0;exitX=1;exitY=0.5;exitDx=0;exitDy=0;entryX=0;entryY=0.5;entryDx=0;entryDy=0;entryPerimeter=0;" edge="1" parent="1" source="RLU1NcDRkOixDta_tGvt-12" target="RLU1NcDRkOixDta_tGvt-15">
          <mxGeometry width="80" relative="1" as="geometry">
            <mxPoint x="490" y="316" as="sourcePoint" />
            <mxPoint x="580" y="310" as="targetPoint" />
          </mxGeometry>
        </mxCell>
        <mxCell id="RLU1NcDRkOixDta_tGvt-23" value="" style="html=1;verticalAlign=bottom;endArrow=block;curved=0;rounded=0;exitX=1;exitY=0.5;exitDx=0;exitDy=0;entryX=0;entryY=0.5;entryDx=0;entryDy=0;entryPerimeter=0;" edge="1" parent="1" source="RLU1NcDRkOixDta_tGvt-13" target="RLU1NcDRkOixDta_tGvt-15">
          <mxGeometry width="80" relative="1" as="geometry">
            <mxPoint x="500" y="326" as="sourcePoint" />
            <mxPoint x="590" y="320" as="targetPoint" />
          </mxGeometry>
        </mxCell>
        <mxCell id="RLU1NcDRkOixDta_tGvt-24" value="" style="html=1;verticalAlign=bottom;endArrow=block;curved=0;rounded=0;exitX=1;exitY=0.5;exitDx=0;exitDy=0;entryX=-0.083;entryY=0.683;entryDx=0;entryDy=0;entryPerimeter=0;" edge="1" parent="1" source="RLU1NcDRkOixDta_tGvt-14" target="RLU1NcDRkOixDta_tGvt-15">
          <mxGeometry width="80" relative="1" as="geometry">
            <mxPoint x="510" y="336" as="sourcePoint" />
            <mxPoint x="600" y="330" as="targetPoint" />
          </mxGeometry>
        </mxCell>
      </root>
    </mxGraphModel>
  </diagram>
</mxfile>
